<?xml version="1.0" encoding="UTF-8"?>
<svg class="chart main" width="1162" height="406.7"><g class="clickable main" transform="translate(125,20.335)"><g class="x axis main" transform="translate(0,313.159)"><g class="tick" transform="translate(0,0)" style="opacity: 1;"><line y2="6" x2="0"></line><text dy=".71em" y="9" x="0" style="text-anchor: middle;">1800</text></g><g class="tick" transform="translate(76.41847255495591,0)" style="opacity: 1;"><line y2="6" x2="0"></line><text dy=".71em" y="9" x="0" style="text-anchor: middle;">1820</text></g><g class="tick" transform="translate(152.8474076609188,0)" style="opacity: 1;"><line y2="6" x2="0"></line><text dy=".71em" y="9" x="0" style="text-anchor: middle;">1840</text></g><g class="tick" transform="translate(229.27634276688167,0)" style="opacity: 1;"><line y2="6" x2="0"></line><text dy=".71em" y="9" x="0" style="text-anchor: middle;">1860</text></g><g class="tick" transform="translate(305.7052778728446,0)" style="opacity: 1;"><line y2="6" x2="0"></line><text dy=".71em" y="9" x="0" style="text-anchor: middle;">1880</text></g><g class="tick" transform="translate(382.1342129788074,0)" style="opacity: 1;"><line y2="6" x2="0"></line><text dy=".71em" y="9" x="0" style="text-anchor: middle;">1900</text></g><g class="tick" transform="translate(458.55268553376334,0)" style="opacity: 1;"><line y2="6" x2="0"></line><text dy=".71em" y="9" x="0" style="text-anchor: middle;">1920</text></g><g class="tick" transform="translate(534.9816206397262,0)" style="opacity: 1;"><line y2="6" x2="0"></line><text dy=".71em" y="9" x="0" style="text-anchor: middle;">1940</text></g><g class="tick" transform="translate(611.4105557456892,0)" style="opacity: 1;"><line y2="6" x2="0"></line><text dy=".71em" y="9" x="0" style="text-anchor: middle;">1960</text></g><g class="tick" transform="translate(687.839490851652,0)" style="opacity: 1;"><line y2="6" x2="0"></line><text dy=".71em" y="9" x="0" style="text-anchor: middle;">1980</text></g><g class="tick" transform="translate(764.2684259576148,0)" style="opacity: 1;"><line y2="6" x2="0"></line><text dy=".71em" y="9" x="0" style="text-anchor: middle;">2000</text></g><path class="domain" d="M0,6V0H794.84V6" style="opacity: 0;"></path></g><text class="tips main" x="397.42" y="358.159" style="text-anchor: middle; font-weight: normal; color: rgb(119, 119, 119);">(click on line/label for focus)</text><g class="x grid main" transform="translate(0,313.159)"><g class="tick" transform="translate(0,0)" style="opacity: 1;"><line y2="-313.159" x2="0"></line><text dy=".71em" y="3" x="0" style="text-anchor: middle;"></text></g><g class="tick" transform="translate(76.41847255495591,0)" style="opacity: 1;"><line y2="-313.159" x2="0"></line><text dy=".71em" y="3" x="0" style="text-anchor: middle;"></text></g><g class="tick" transform="translate(152.8474076609188,0)" style="opacity: 1;"><line y2="-313.159" x2="0"></line><text dy=".71em" y="3" x="0" style="text-anchor: middle;"></text></g><g class="tick" transform="translate(229.27634276688167,0)" style="opacity: 1;"><line y2="-313.159" x2="0"></line><text dy=".71em" y="3" x="0" style="text-anchor: middle;"></text></g><g class="tick" transform="translate(305.7052778728446,0)" style="opacity: 1;"><line y2="-313.159" x2="0"></line><text dy=".71em" y="3" x="0" style="text-anchor: middle;"></text></g><g class="tick" transform="translate(382.1342129788074,0)" style="opacity: 1;"><line y2="-313.159" x2="0"></line><text dy=".71em" y="3" x="0" style="text-anchor: middle;"></text></g><g class="tick" transform="translate(458.55268553376334,0)" style="opacity: 1;"><line y2="-313.159" x2="0"></line><text dy=".71em" y="3" x="0" style="text-anchor: middle;"></text></g><g class="tick" transform="translate(534.9816206397262,0)" style="opacity: 1;"><line y2="-313.159" x2="0"></line><text dy=".71em" y="3" x="0" style="text-anchor: middle;"></text></g><g class="tick" transform="translate(611.4105557456892,0)" style="opacity: 1;"><line y2="-313.159" x2="0"></line><text dy=".71em" y="3" x="0" style="text-anchor: middle;"></text></g><g class="tick" transform="translate(687.839490851652,0)" style="opacity: 1;"><line y2="-313.159" x2="0"></line><text dy=".71em" y="3" x="0" style="text-anchor: middle;"></text></g><g class="tick" transform="translate(764.2684259576148,0)" style="opacity: 1;"><line y2="-313.159" x2="0"></line><text dy=".71em" y="3" x="0" style="text-anchor: middle;"></text></g><path class="domain" d="M0,0V0H794.84V0"></path></g><g class="y grid main"><g class="tick" transform="translate(0,313.159)" style="opacity: 1;"><line x2="794.84" y2="0"></line><text dy=".32em" x="-3" y="0" style="text-anchor: end;"></text></g><g class="tick" transform="translate(0,284.69)" style="opacity: 1;"><line x2="794.84" y2="0"></line><text dy=".32em" x="-3" y="0" style="text-anchor: end;"></text></g><g class="tick" transform="translate(0,256.221)" style="opacity: 1;"><line x2="794.84" y2="0"></line><text dy=".32em" x="-3" y="0" style="text-anchor: end;"></text></g><g class="tick" transform="translate(0,227.752)" style="opacity: 1;"><line x2="794.84" y2="0"></line><text dy=".32em" x="-3" y="0" style="text-anchor: end;"></text></g><g class="tick" transform="translate(0,199.28300000000002)" style="opacity: 1;"><line x2="794.84" y2="0"></line><text dy=".32em" x="-3" y="0" style="text-anchor: end;"></text></g><g class="tick" transform="translate(0,170.81400000000002)" style="opacity: 1;"><line x2="794.84" y2="0"></line><text dy=".32em" x="-3" y="0" style="text-anchor: end;"></text></g><g class="tick" transform="translate(0,142.345)" style="opacity: 1;"><line x2="794.84" y2="0"></line><text dy=".32em" x="-3" y="0" style="text-anchor: end;"></text></g><g class="tick" transform="translate(0,113.876)" style="opacity: 1;"><line x2="794.84" y2="0"></line><text dy=".32em" x="-3" y="0" style="text-anchor: end;"></text></g><g class="tick" transform="translate(0,85.40700000000002)" style="opacity: 1;"><line x2="794.84" y2="0"></line><text dy=".32em" x="-3" y="0" style="text-anchor: end;"></text></g><g class="tick" transform="translate(0,56.93800000000002)" style="opacity: 1;"><line x2="794.84" y2="0"></line><text dy=".32em" x="-3" y="0" style="text-anchor: end;"></text></g><g class="tick" transform="translate(0,28.469000000000044)" style="opacity: 1;"><line x2="794.84" y2="0"></line><text dy=".32em" x="-3" y="0" style="text-anchor: end;"></text></g><g class="tick" transform="translate(0,0)" style="opacity: 1;"><line x2="794.84" y2="0"></line><text dy=".32em" x="-3" y="0" style="text-anchor: end;"></text></g><path class="domain" d="M0,0H0V313.159H0"></path></g><g class="x axis zero main" transform="translate(0,313.159)"><g class="tick" transform="translate(0,0)" style="opacity: 1;"><line y2="0" x2="0"></line><text dy=".71em" y="3" x="0" style="text-anchor: middle;"></text></g><g class="tick" transform="translate(76.41847255495591,0)" style="opacity: 1;"><line y2="0" x2="0"></line><text dy=".71em" y="3" x="0" style="text-anchor: middle;"></text></g><g class="tick" transform="translate(152.8474076609188,0)" style="opacity: 1;"><line y2="0" x2="0"></line><text dy=".71em" y="3" x="0" style="text-anchor: middle;"></text></g><g class="tick" transform="translate(229.27634276688167,0)" style="opacity: 1;"><line y2="0" x2="0"></line><text dy=".71em" y="3" x="0" style="text-anchor: middle;"></text></g><g class="tick" transform="translate(305.7052778728446,0)" style="opacity: 1;"><line y2="0" x2="0"></line><text dy=".71em" y="3" x="0" style="text-anchor: middle;"></text></g><g class="tick" transform="translate(382.1342129788074,0)" style="opacity: 1;"><line y2="0" x2="0"></line><text dy=".71em" y="3" x="0" style="text-anchor: middle;"></text></g><g class="tick" transform="translate(458.55268553376334,0)" style="opacity: 1;"><line y2="0" x2="0"></line><text dy=".71em" y="3" x="0" style="text-anchor: middle;"></text></g><g class="tick" transform="translate(534.9816206397262,0)" style="opacity: 1;"><line y2="0" x2="0"></line><text dy=".71em" y="3" x="0" style="text-anchor: middle;"></text></g><g class="tick" transform="translate(611.4105557456892,0)" style="opacity: 1;"><line y2="0" x2="0"></line><text dy=".71em" y="3" x="0" style="text-anchor: middle;"></text></g><g class="tick" transform="translate(687.839490851652,0)" style="opacity: 1;"><line y2="0" x2="0"></line><text dy=".71em" y="3" x="0" style="text-anchor: middle;"></text></g><g class="tick" transform="translate(764.2684259576148,0)" style="opacity: 1;"><line y2="0" x2="0"></line><text dy=".71em" y="3" x="0" style="text-anchor: middle;"></text></g><path class="domain" d="M0,0V0H794.84V0" style="stroke: rgb(68, 68, 68);"></path></g><g class="y axis main"><g class="tick" transform="translate(0,313.159)" style="opacity: 1;"><line x2="-6" y2="0"></line><text dy=".32em" x="-9" y="0" style="text-anchor: end;">0.0000000%</text></g><g class="tick" transform="translate(0,284.69)" style="opacity: 1;"><line x2="-6" y2="0"></line><text dy=".32em" x="-9" y="0" style="text-anchor: end;">0.0000050%</text></g><g class="tick" transform="translate(0,256.221)" style="opacity: 1;"><line x2="-6" y2="0"></line><text dy=".32em" x="-9" y="0" style="text-anchor: end;">0.0000100%</text></g><g class="tick" transform="translate(0,227.752)" style="opacity: 1;"><line x2="-6" y2="0"></line><text dy=".32em" x="-9" y="0" style="text-anchor: end;">0.0000150%</text></g><g class="tick" transform="translate(0,199.28300000000002)" style="opacity: 1;"><line x2="-6" y2="0"></line><text dy=".32em" x="-9" y="0" style="text-anchor: end;">0.0000200%</text></g><g class="tick" transform="translate(0,170.81400000000002)" style="opacity: 1;"><line x2="-6" y2="0"></line><text dy=".32em" x="-9" y="0" style="text-anchor: end;">0.0000250%</text></g><g class="tick" transform="translate(0,142.345)" style="opacity: 1;"><line x2="-6" y2="0"></line><text dy=".32em" x="-9" y="0" style="text-anchor: end;">0.0000300%</text></g><g class="tick" transform="translate(0,113.876)" style="opacity: 1;"><line x2="-6" y2="0"></line><text dy=".32em" x="-9" y="0" style="text-anchor: end;">0.0000350%</text></g><g class="tick" transform="translate(0,85.40700000000002)" style="opacity: 1;"><line x2="-6" y2="0"></line><text dy=".32em" x="-9" y="0" style="text-anchor: end;">0.0000400%</text></g><g class="tick" transform="translate(0,56.93800000000002)" style="opacity: 1;"><line x2="-6" y2="0"></line><text dy=".32em" x="-9" y="0" style="text-anchor: end;">0.0000450%</text></g><g class="tick" transform="translate(0,28.469000000000044)" style="opacity: 1;"><line x2="-6" y2="0"></line><text dy=".32em" x="-9" y="0" style="text-anchor: end;">0.0000500%</text></g><g class="tick" transform="translate(0,0)" style="opacity: 1;"><line x2="-6" y2="0"></line><text dy=".32em" x="-9" y="0" style="text-anchor: end;">0.0000550%</text></g><path class="domain" d="M-6,0H0V313.159H-6"></path></g><rect class="invisible main" opacity="0" x="0" y="0" width="797.84" height="313.159"></rect><path class="line visible clickable main" d="M0,313.159L3.8188311175464,313.159L7.6376622350928,313.159L11.4564933526392,313.159L15.2753244701856,313.159L19.104618138738978,313.159L22.923449256285377,313.159L26.74228037383178,313.159L30.561111491378178,313.159L34.390405159931554,313.159L38.209236277477956,311.70242938354056L42.02806739502435,311.70242938354056L45.84689851257075,311.70242938354056L49.67619218112413,311.70242938354056L53.49502329867053,311.70242938354056L57.31385441621693,311.70242938354056L61.13268553376333,311.70242938354056L64.96197920231671,311.70242938354056L68.78081031986311,311.70242938354056L72.59964143740952,311.70242938354056L76.41847255495591,311.70242938354056L80.24776622350929,311.70242938354056L84.06659734105568,311.70242938354056L87.88542845860208,311.70242938354056L91.70425957614849,311.70242938354056L95.53355324470185,313.159L99.35238436224826,313.159L103.17121547979465,313.03305200247206L106.99004659734106,313.03305200247206L110.81934026589443,313.03305200247206L114.63817138344083,313.03305200247206L118.45700250098723,313.03305200247206L122.27583361853364,312.8496221670215L126.105127287087,312.31234998282974L129.92395840463342,311.1362071899484L133.7427895221798,310.37353933059313L137.56162063972621,310.37353933059313L141.3909143082796,310.1924867584028L145.209745425826,310.1924867584028L149.02857654337237,310.1924867584028L152.8474076609188,309.85041542384874L156.67670132947217,309.4432507525377L160.49553244701858,309.08699549633724L164.31436356456499,308.18347457388086L168.13319468211137,307.3363496687691L171.96248835066476,303.59971453053976L175.78131946821114,296.9814119955369L179.60015058575755,289.50157740449947L183.41898170330393,284.58716602676634L187.24827537185732,224.2041944063627L191.0671064894037,217.62204420880116L194.8859376069501,202.49038482988263L198.70476872449652,183.0580012841179L202.5340623930499,169.25944040947033L206.35289351059632,152.8693562213341L210.17172462814273,142.30704847055614L213.99055574568908,129.8283293238474L217.8198494142425,112.83827102107458L221.63868053178885,105.36560119217712L225.45751164933526,92.5041844828591L229.27634276688167,88.48254679165866L233.10563643543503,85.60408061312444L236.92446755298144,74.16193516278348L240.74329867052788,66.61196349233118L244.56212978807423,115.36779193732724L248.39142345662765,111.72602252410134L252.210254574174,107.2927487321031L256.0290856917204,112.9549019418962L259.84791680926685,102.46458556116161L263.6772104778202,107.41356592881954L267.4960415953666,103.36693046947802L271.31487271291303,103.04511916615053L275.13370383045935,108.04716709601908L278.9629974990128,109.11452052328836L282.7818286165592,97.86211515375595L286.6006597341056,97.96911605545823L290.419490851652,94.89728863543806L294.24878452020533,106.12369479413647L298.06761563775177,113.412727665203L301.88644675529815,116.6184145019393L305.7052778728446,120.9776926562315L309.53457154139795,134.9147816718113L313.35340265894433,140.6095339585024L317.1722337764907,155.39852678098612L320.99106489403715,154.0192373056435L324.8203585625905,161.0626704693878L328.6391896801369,163.2844351403607L332.45802079768333,157.06256366122886L336.2768519152297,158.43587900362027L340.1061455837831,174.54756697795062L343.9249767013295,169.6184121008895L347.7438078188759,172.09214331360675L351.5626389364223,170.08670213165658L355.3919326049757,162.5808829448338L359.210763722522,151.27588254947588L363.02959484006846,148.78487948457197L366.8484259576149,136.96579456482164L370.67771962616825,135.22968671561958L374.49655074371464,129.2798289725437L378.3153818612611,130.7975856337826L382.1342129788074,117.75978460449343L385.95304409635384,120.22790255964938L389.7718752139002,116.08441656065926L393.59070633144665,109.55219116726407L397.40953744899304,104.68989641272346L401.23883111754645,106.47716064101684L405.05766223509283,108.01050884526472L408.8764933526393,109.0706533955353L412.6953244701856,109.00282716266571L416.524618138739,118.37650877867739L420.34344925628545,111.87030093656954L424.1622803738318,112.00590377519973L427.98111149137816,112.31362853153942L431.8104051599315,113.11233261708388L435.62923627747796,113.46423844658322L439.44806739502434,120.25473626110873L443.2668985125708,117.16788261558142L447.09619218112414,132.86627818435306L450.9150232986705,136.60403235994656L454.73385441621696,134.93130102598744L458.55268553376334,131.61510432729168L462.3819792023167,125.15236767491557L466.20081031986314,128.12028402019013L470.0196414374096,130.97842466106255L473.83847255495596,132.59927840457541L477.6677662235093,136.66682198068372L481.48659734105576,140.50964321900608L485.3054284586021,140.75532977376895L489.12425957614846,139.33204694520046L492.95355324470194,134.8442394335774L496.77238436224826,136.9549170577369L500.59121547979464,120.9136283739897L504.4100465973411,115.74441476420458L508.23934026589444,107.32000911881434L512.0581713834408,101.94203583871912L515.8770025009873,93.9380494832716L519.6958336185337,79.19964178870129L523.525127287087,67.85715890104049L527.3439584046334,54.88837623408566L531.1627895221799,55.14289641424L534.9816206397262,53.08680968876561L538.8109143082796,50.028285570492145L542.6297454258261,46.28279496015488L546.4485765433724,34.33366274085018L550.2674076609187,37.035621475634834L554.0967013294722,33.63216737321886L557.9155324470187,45.35923446276627L561.734363564565,42.02231305183679L565.5531946821113,48.99210713786431L569.3824883506647,62.131269918889835L573.2013194682112,72.56038528579838L577.0201505857575,93.62141666087707L580.838981703304,96.80807905328588L584.6682753718574,105.0992003091136L588.4871064894037,106.54898940810747L592.3059376069501,105.10622362387895L596.1247687244966,114.29855915301937L599.9540623930499,119.68702533010496L603.7728935105963,137.72808475918075L607.5917246281427,140.05210824582662L611.4105557456892,146.2750154211451L615.2398494142425,155.33624044386463L619.0586805317889,162.56402591054686L622.8775116493354,163.08802992305135L626.6963427668817,160.59149990860175L630.5256364354351,165.62823610876973L634.3444675529814,167.41844074326784L638.1632986705279,175.6413560109576L641.9821297880743,185.23513870994768L645.8114234566276,187.94506313514242L649.630254574174,194.96852732121417L653.4490856917205,194.59122535813947L657.2679168092668,196.68738759235887L661.0972104778202,199.2041649278313L664.9160415953667,204.03867335619094L668.734872712913,207.81222270238328L672.5537038304594,208.99380101225634L676.3829974990128,212.24018585429974L680.2018286165592,217.4568947650416L684.0206597341056,223.5670418666077L687.839490851652,226.14791800752812L691.6687845202053,230.19032167698225L695.4876156377518,229.6505961200203L699.3064467552981,230.42515445936468L703.1252778728445,231.3996474744293L706.954571541398,234.33541947816272L710.7734026589443,237.6497176702289L714.5922337764907,239.6283475368612L718.4110648940372,243.13585539196103L722.2403585625905,245.6668093584125L726.0591896801369,244.8744979996947L729.8780207976833,246.85023385068067L733.6968519152298,247.6225101521514L737.5261455837831,247.57892325573627L741.3449767013295,248.59502051027127L745.163807818876,247.80459713939368L748.9826389364223,247.4101600683944L752.8119326049757,249.8260009888196L756.6307637225221,251.36101466805502L760.4495948400685,252.53831263978194L764.2684259576148,252.310987036477L768.0977196261683,251.85156434516992L771.9165507437147,251.45973982550743L775.735381861261,251.2806911797638L779.5542129788074,249.9330325703243L783.3835066473608,252.69910268283965L787.2023377649072,252.2036357781741L791.0211688824536,252.75892410880647L794.84,253.62293724495657" style="stroke: rgb(67, 116, 224); opacity: 1; font-weight: normal;"></path><path class="line invisible hover clickable main" d="M0,313.159L3.8188311175464,313.159L7.6376622350928,313.159L11.4564933526392,313.159L15.2753244701856,313.159L19.104618138738978,313.159L22.923449256285377,313.159L26.74228037383178,313.159L30.561111491378178,313.159L34.390405159931554,313.159L38.209236277477956,311.70242938354056L42.02806739502435,311.70242938354056L45.84689851257075,311.70242938354056L49.67619218112413,311.70242938354056L53.49502329867053,311.70242938354056L57.31385441621693,311.70242938354056L61.13268553376333,311.70242938354056L64.96197920231671,311.70242938354056L68.78081031986311,311.70242938354056L72.59964143740952,311.70242938354056L76.41847255495591,311.70242938354056L80.24776622350929,311.70242938354056L84.06659734105568,311.70242938354056L87.88542845860208,311.70242938354056L91.70425957614849,311.70242938354056L95.53355324470185,313.159L99.35238436224826,313.159L103.17121547979465,313.03305200247206L106.99004659734106,313.03305200247206L110.81934026589443,313.03305200247206L114.63817138344083,313.03305200247206L118.45700250098723,313.03305200247206L122.27583361853364,312.8496221670215L126.105127287087,312.31234998282974L129.92395840463342,311.1362071899484L133.7427895221798,310.37353933059313L137.56162063972621,310.37353933059313L141.3909143082796,310.1924867584028L145.209745425826,310.1924867584028L149.02857654337237,310.1924867584028L152.8474076609188,309.85041542384874L156.67670132947217,309.4432507525377L160.49553244701858,309.08699549633724L164.31436356456499,308.18347457388086L168.13319468211137,307.3363496687691L171.96248835066476,303.59971453053976L175.78131946821114,296.9814119955369L179.60015058575755,289.50157740449947L183.41898170330393,284.58716602676634L187.24827537185732,224.2041944063627L191.0671064894037,217.62204420880116L194.8859376069501,202.49038482988263L198.70476872449652,183.0580012841179L202.5340623930499,169.25944040947033L206.35289351059632,152.8693562213341L210.17172462814273,142.30704847055614L213.99055574568908,129.8283293238474L217.8198494142425,112.83827102107458L221.63868053178885,105.36560119217712L225.45751164933526,92.5041844828591L229.27634276688167,88.48254679165866L233.10563643543503,85.60408061312444L236.92446755298144,74.16193516278348L240.74329867052788,66.61196349233118L244.56212978807423,115.36779193732724L248.39142345662765,111.72602252410134L252.210254574174,107.2927487321031L256.0290856917204,112.9549019418962L259.84791680926685,102.46458556116161L263.6772104778202,107.41356592881954L267.4960415953666,103.36693046947802L271.31487271291303,103.04511916615053L275.13370383045935,108.04716709601908L278.9629974990128,109.11452052328836L282.7818286165592,97.86211515375595L286.6006597341056,97.96911605545823L290.419490851652,94.89728863543806L294.24878452020533,106.12369479413647L298.06761563775177,113.412727665203L301.88644675529815,116.6184145019393L305.7052778728446,120.9776926562315L309.53457154139795,134.9147816718113L313.35340265894433,140.6095339585024L317.1722337764907,155.39852678098612L320.99106489403715,154.0192373056435L324.8203585625905,161.0626704693878L328.6391896801369,163.2844351403607L332.45802079768333,157.06256366122886L336.2768519152297,158.43587900362027L340.1061455837831,174.54756697795062L343.9249767013295,169.6184121008895L347.7438078188759,172.09214331360675L351.5626389364223,170.08670213165658L355.3919326049757,162.5808829448338L359.210763722522,151.27588254947588L363.02959484006846,148.78487948457197L366.8484259576149,136.96579456482164L370.67771962616825,135.22968671561958L374.49655074371464,129.2798289725437L378.3153818612611,130.7975856337826L382.1342129788074,117.75978460449343L385.95304409635384,120.22790255964938L389.7718752139002,116.08441656065926L393.59070633144665,109.55219116726407L397.40953744899304,104.68989641272346L401.23883111754645,106.47716064101684L405.05766223509283,108.01050884526472L408.8764933526393,109.0706533955353L412.6953244701856,109.00282716266571L416.524618138739,118.37650877867739L420.34344925628545,111.87030093656954L424.1622803738318,112.00590377519973L427.98111149137816,112.31362853153942L431.8104051599315,113.11233261708388L435.62923627747796,113.46423844658322L439.44806739502434,120.25473626110873L443.2668985125708,117.16788261558142L447.09619218112414,132.86627818435306L450.9150232986705,136.60403235994656L454.73385441621696,134.93130102598744L458.55268553376334,131.61510432729168L462.3819792023167,125.15236767491557L466.20081031986314,128.12028402019013L470.0196414374096,130.97842466106255L473.83847255495596,132.59927840457541L477.6677662235093,136.66682198068372L481.48659734105576,140.50964321900608L485.3054284586021,140.75532977376895L489.12425957614846,139.33204694520046L492.95355324470194,134.8442394335774L496.77238436224826,136.9549170577369L500.59121547979464,120.9136283739897L504.4100465973411,115.74441476420458L508.23934026589444,107.32000911881434L512.0581713834408,101.94203583871912L515.8770025009873,93.9380494832716L519.6958336185337,79.19964178870129L523.525127287087,67.85715890104049L527.3439584046334,54.88837623408566L531.1627895221799,55.14289641424L534.9816206397262,53.08680968876561L538.8109143082796,50.028285570492145L542.6297454258261,46.28279496015488L546.4485765433724,34.33366274085018L550.2674076609187,37.035621475634834L554.0967013294722,33.63216737321886L557.9155324470187,45.35923446276627L561.734363564565,42.02231305183679L565.5531946821113,48.99210713786431L569.3824883506647,62.131269918889835L573.2013194682112,72.56038528579838L577.0201505857575,93.62141666087707L580.838981703304,96.80807905328588L584.6682753718574,105.0992003091136L588.4871064894037,106.54898940810747L592.3059376069501,105.10622362387895L596.1247687244966,114.29855915301937L599.9540623930499,119.68702533010496L603.7728935105963,137.72808475918075L607.5917246281427,140.05210824582662L611.4105557456892,146.2750154211451L615.2398494142425,155.33624044386463L619.0586805317889,162.56402591054686L622.8775116493354,163.08802992305135L626.6963427668817,160.59149990860175L630.5256364354351,165.62823610876973L634.3444675529814,167.41844074326784L638.1632986705279,175.6413560109576L641.9821297880743,185.23513870994768L645.8114234566276,187.94506313514242L649.630254574174,194.96852732121417L653.4490856917205,194.59122535813947L657.2679168092668,196.68738759235887L661.0972104778202,199.2041649278313L664.9160415953667,204.03867335619094L668.734872712913,207.81222270238328L672.5537038304594,208.99380101225634L676.3829974990128,212.24018585429974L680.2018286165592,217.4568947650416L684.0206597341056,223.5670418666077L687.839490851652,226.14791800752812L691.6687845202053,230.19032167698225L695.4876156377518,229.6505961200203L699.3064467552981,230.42515445936468L703.1252778728445,231.3996474744293L706.954571541398,234.33541947816272L710.7734026589443,237.6497176702289L714.5922337764907,239.6283475368612L718.4110648940372,243.13585539196103L722.2403585625905,245.6668093584125L726.0591896801369,244.8744979996947L729.8780207976833,246.85023385068067L733.6968519152298,247.6225101521514L737.5261455837831,247.57892325573627L741.3449767013295,248.59502051027127L745.163807818876,247.80459713939368L748.9826389364223,247.4101600683944L752.8119326049757,249.8260009888196L756.6307637225221,251.36101466805502L760.4495948400685,252.53831263978194L764.2684259576148,252.310987036477L768.0977196261683,251.85156434516992L771.9165507437147,251.45973982550743L775.735381861261,251.2806911797638L779.5542129788074,249.9330325703243L783.3835066473608,252.69910268283965L787.2023377649072,252.2036357781741L791.0211688824536,252.75892410880647L794.84,253.62293724495657"></path><text class="label hover clickable main" transform="translate(794.84,254)" x="3" dy=".1em" style="font-size: 15px; fill: rgb(67, 116, 224); opacity: 1; font-weight: normal;">stereoscope</text><filter id="dropshadow"><feOffset in="SourceGraphic" dx="5" dy="5" result="offsetOut"></feOffset><feColorMatrix in="offsetOut" result="shadowColor" type="matrix" values="0.7 0 0 0 0 0 0.7 0 0 0 0 0 0.7 0 0 0 0 0 1 0"></feColorMatrix><feBlend in="SourceGraphic" in2="shadowColor" result="blur"></feBlend></filter><g visibility="block" class="tooltip main" pointer-events="none" transform="translate(544,65.66500091552734)"><rect class="tooltip_rect main" visibility="hidden" pointer-events="none" width="244.53125" height="56"></rect><text x="14" y="25" class="tt_left_column main" dy="0" visibility="hidden" style="fill: rgb(77, 77, 77);"><tspan x="14" style="font-weight: bold;">1939</tspan><tspan x="14" dy="16" style="font-size: 13.5px; font-weight: normal;">&#8234;stereoscope&#8236;</tspan></text><text y="25" class="tt_right_column main" dy="0" x="124.53125" visibility="hidden"><tspan x="124.53125" dy="16" style="font-size: 13.5px; font-weight: normal; fill: rgb(67, 116, 224);">0.0000453153%</tspan></text></g></g></svg>
